<mxfile host="Electron" modified="2024-07-16T13:55:23.017Z" agent="Mozilla/5.0 (Windows NT 10.0; Win64; x64) AppleWebKit/537.36 (KHTML, like Gecko) draw.io/24.6.4 Chrome/124.0.6367.207 Electron/30.0.6 Safari/537.36" etag="NcQYaAUzU03Z5IFDVROO" version="24.6.4" type="device">
  <diagram name="Page-1" id="LQf0SLDCXW665fUWvNdl">
    <mxGraphModel dx="2163" dy="1876" grid="1" gridSize="10" guides="1" tooltips="1" connect="1" arrows="1" fold="1" page="1" pageScale="1" pageWidth="850" pageHeight="1100" math="0" shadow="0">
      <root>
        <mxCell id="0" />
        <mxCell id="1" parent="0" />
        <mxCell id="_GWdkxwK42QnLjUwGl8g-1" value="&lt;span id=&quot;docs-internal-guid-1afd1a87-7fff-463c-7df3-490a16e79d8a&quot;&gt;&lt;span style=&quot;font-size: 14pt; font-family: Arial, sans-serif; background-color: transparent; font-variant-numeric: normal; font-variant-east-asian: normal; font-variant-alternates: normal; font-variant-position: normal; vertical-align: baseline; white-space-collapse: preserve;&quot;&gt;airline&lt;/span&gt;&lt;/span&gt;" style="rounded=1;arcSize=10;whiteSpace=wrap;html=1;align=center;" vertex="1" parent="1">
          <mxGeometry x="70" y="210" width="100" height="30" as="geometry" />
        </mxCell>
        <mxCell id="_GWdkxwK42QnLjUwGl8g-2" value="name" style="ellipse;whiteSpace=wrap;html=1;align=center;" vertex="1" parent="1">
          <mxGeometry x="-30" y="130" width="70" height="30" as="geometry" />
        </mxCell>
        <mxCell id="_GWdkxwK42QnLjUwGl8g-3" value="&lt;b&gt;id&lt;/b&gt;" style="ellipse;whiteSpace=wrap;html=1;align=center;fontStyle=4;" vertex="1" parent="1">
          <mxGeometry x="-70" y="170" width="60" height="30" as="geometry" />
        </mxCell>
        <mxCell id="_GWdkxwK42QnLjUwGl8g-6" value="&lt;span id=&quot;docs-internal-guid-df06acde-7fff-a3ad-2ce2-6a8465172af3&quot;&gt;&lt;span style=&quot;font-size: 14px; font-family: Arial, sans-serif; background-color: transparent; font-variant-numeric: normal; font-variant-east-asian: normal; font-variant-alternates: normal; font-variant-position: normal; vertical-align: baseline; white-space-collapse: preserve;&quot;&gt;address&lt;/span&gt;&lt;/span&gt;" style="ellipse;whiteSpace=wrap;html=1;align=center;" vertex="1" parent="1">
          <mxGeometry x="-70" y="210" width="60" height="40" as="geometry" />
        </mxCell>
        <mxCell id="_GWdkxwK42QnLjUwGl8g-7" value="" style="endArrow=none;html=1;rounded=0;" edge="1" parent="1" source="_GWdkxwK42QnLjUwGl8g-6" target="_GWdkxwK42QnLjUwGl8g-1">
          <mxGeometry relative="1" as="geometry">
            <mxPoint x="140" y="290" as="sourcePoint" />
            <mxPoint x="300" y="290" as="targetPoint" />
          </mxGeometry>
        </mxCell>
        <mxCell id="_GWdkxwK42QnLjUwGl8g-8" value="" style="endArrow=none;html=1;rounded=0;" edge="1" parent="1" source="_GWdkxwK42QnLjUwGl8g-3" target="_GWdkxwK42QnLjUwGl8g-1">
          <mxGeometry relative="1" as="geometry">
            <mxPoint x="20" y="200" as="sourcePoint" />
            <mxPoint x="180" y="200" as="targetPoint" />
          </mxGeometry>
        </mxCell>
        <mxCell id="_GWdkxwK42QnLjUwGl8g-9" value="" style="endArrow=none;html=1;rounded=0;" edge="1" parent="1" source="_GWdkxwK42QnLjUwGl8g-2" target="_GWdkxwK42QnLjUwGl8g-1">
          <mxGeometry relative="1" as="geometry">
            <mxPoint x="130" y="160" as="sourcePoint" />
            <mxPoint x="290" y="160" as="targetPoint" />
          </mxGeometry>
        </mxCell>
        <mxCell id="_GWdkxwK42QnLjUwGl8g-10" value="&lt;font style=&quot;font-size: 10px;&quot;&gt;telphone_num&lt;/font&gt;" style="ellipse;shape=doubleEllipse;margin=3;whiteSpace=wrap;html=1;align=center;" vertex="1" parent="1">
          <mxGeometry x="-85" y="260" width="90" height="30" as="geometry" />
        </mxCell>
        <mxCell id="_GWdkxwK42QnLjUwGl8g-11" value="" style="endArrow=none;html=1;rounded=0;" edge="1" parent="1" source="_GWdkxwK42QnLjUwGl8g-10" target="_GWdkxwK42QnLjUwGl8g-1">
          <mxGeometry relative="1" as="geometry">
            <mxPoint x="340" y="330" as="sourcePoint" />
            <mxPoint x="500" y="330" as="targetPoint" />
          </mxGeometry>
        </mxCell>
        <mxCell id="_GWdkxwK42QnLjUwGl8g-12" value="&lt;span id=&quot;docs-internal-guid-917fbf24-7fff-df1d-665a-0e5732ed87d3&quot;&gt;&lt;span style=&quot;font-family: Arial, sans-serif; background-color: transparent; font-variant-numeric: normal; font-variant-east-asian: normal; font-variant-alternates: normal; font-variant-position: normal; vertical-align: baseline; white-space-collapse: preserve;&quot;&gt;&lt;font style=&quot;font-size: 16px;&quot;&gt;employee&lt;/font&gt;&lt;/span&gt;&lt;span style=&quot;font-size: 14pt; font-family: Arial, sans-serif; background-color: transparent; font-variant-numeric: normal; font-variant-east-asian: normal; font-variant-alternates: normal; font-variant-position: normal; vertical-align: baseline; white-space-collapse: preserve;&quot;&gt; &lt;/span&gt;&lt;/span&gt;" style="rounded=1;arcSize=10;whiteSpace=wrap;html=1;align=center;" vertex="1" parent="1">
          <mxGeometry x="590" y="210" width="100" height="30" as="geometry" />
        </mxCell>
        <mxCell id="_GWdkxwK42QnLjUwGl8g-13" value="&lt;font size=&quot;1&quot; face=&quot;Arial, sans-serif&quot;&gt;&lt;span style=&quot;white-space-collapse: preserve; font-size: 16px;&quot;&gt;birthday &lt;/span&gt;&lt;/font&gt;" style="ellipse;whiteSpace=wrap;html=1;align=center;" vertex="1" parent="1">
          <mxGeometry x="720" y="230" width="85" height="30" as="geometry" />
        </mxCell>
        <mxCell id="_GWdkxwK42QnLjUwGl8g-14" value="&lt;font style=&quot;font-size: 14px;&quot;&gt;&lt;b&gt;id&lt;/b&gt;&lt;/font&gt;" style="ellipse;whiteSpace=wrap;html=1;align=center;fontStyle=4;" vertex="1" parent="1">
          <mxGeometry x="650" y="120" width="60" height="30" as="geometry" />
        </mxCell>
        <mxCell id="_GWdkxwK42QnLjUwGl8g-15" value="&lt;span id=&quot;docs-internal-guid-917fbf24-7fff-df1d-665a-0e5732ed87d3&quot;&gt;&lt;span style=&quot;font-family: Arial, sans-serif; background-color: transparent; font-variant-numeric: normal; font-variant-east-asian: normal; font-variant-alternates: normal; font-variant-position: normal; vertical-align: baseline; white-space-collapse: preserve;&quot;&gt;&lt;font style=&quot;font-size: 15px;&quot;&gt;day&lt;/font&gt;&lt;/span&gt;&lt;/span&gt;" style="ellipse;whiteSpace=wrap;html=1;align=center;" vertex="1" parent="1">
          <mxGeometry x="830" y="240" width="60" height="30" as="geometry" />
        </mxCell>
        <mxCell id="_GWdkxwK42QnLjUwGl8g-16" value="&lt;span id=&quot;docs-internal-guid-917fbf24-7fff-df1d-665a-0e5732ed87d3&quot;&gt;&lt;span style=&quot;font-family: Arial, sans-serif; background-color: transparent; font-variant-numeric: normal; font-variant-east-asian: normal; font-variant-alternates: normal; font-variant-position: normal; vertical-align: baseline; white-space-collapse: preserve;&quot;&gt;&lt;font style=&quot;font-size: 15px;&quot;&gt;address&lt;/font&gt;&lt;/span&gt;&lt;/span&gt;" style="ellipse;whiteSpace=wrap;html=1;align=center;" vertex="1" parent="1">
          <mxGeometry x="720" y="165" width="80" height="40" as="geometry" />
        </mxCell>
        <mxCell id="_GWdkxwK42QnLjUwGl8g-17" value="&lt;span id=&quot;docs-internal-guid-917fbf24-7fff-df1d-665a-0e5732ed87d3&quot;&gt;&lt;span style=&quot;font-family: Arial, sans-serif; background-color: transparent; font-variant-numeric: normal; font-variant-east-asian: normal; font-variant-alternates: normal; font-variant-position: normal; vertical-align: baseline; white-space-collapse: preserve;&quot;&gt;&lt;font style=&quot;font-size: 16px;&quot;&gt;name&lt;/font&gt;&lt;/span&gt;&lt;/span&gt;" style="ellipse;whiteSpace=wrap;html=1;align=center;" vertex="1" parent="1">
          <mxGeometry x="710" y="110" width="60" height="30" as="geometry" />
        </mxCell>
        <mxCell id="_GWdkxwK42QnLjUwGl8g-18" value="&lt;span id=&quot;docs-internal-guid-917fbf24-7fff-df1d-665a-0e5732ed87d3&quot;&gt;&lt;span style=&quot;font-family: Arial, sans-serif; background-color: transparent; font-variant-numeric: normal; font-variant-east-asian: normal; font-variant-alternates: normal; font-variant-position: normal; vertical-align: baseline; white-space-collapse: preserve;&quot;&gt;&lt;font style=&quot;font-size: 14px;&quot;&gt;month&lt;/font&gt;&lt;/span&gt;&lt;/span&gt;" style="ellipse;whiteSpace=wrap;html=1;align=center;" vertex="1" parent="1">
          <mxGeometry x="830" y="280" width="50" height="30" as="geometry" />
        </mxCell>
        <mxCell id="_GWdkxwK42QnLjUwGl8g-19" value="&lt;font size=&quot;1&quot; face=&quot;Arial, sans-serif&quot;&gt;&lt;span style=&quot;white-space-collapse: preserve; font-size: 14px;&quot;&gt;year&lt;/span&gt;&lt;/font&gt;" style="ellipse;whiteSpace=wrap;html=1;align=center;" vertex="1" parent="1">
          <mxGeometry x="860" y="210" width="50" height="30" as="geometry" />
        </mxCell>
        <mxCell id="_GWdkxwK42QnLjUwGl8g-20" value="" style="endArrow=none;html=1;rounded=0;" edge="1" parent="1" source="_GWdkxwK42QnLjUwGl8g-13" target="_GWdkxwK42QnLjUwGl8g-12">
          <mxGeometry relative="1" as="geometry">
            <mxPoint x="440" y="290" as="sourcePoint" />
            <mxPoint x="600" y="290" as="targetPoint" />
          </mxGeometry>
        </mxCell>
        <mxCell id="_GWdkxwK42QnLjUwGl8g-21" value="" style="endArrow=none;html=1;rounded=0;exitX=1;exitY=0.5;exitDx=0;exitDy=0;" edge="1" parent="1" source="_GWdkxwK42QnLjUwGl8g-12" target="_GWdkxwK42QnLjUwGl8g-16">
          <mxGeometry relative="1" as="geometry">
            <mxPoint x="345" y="310" as="sourcePoint" />
            <mxPoint x="505" y="310" as="targetPoint" />
          </mxGeometry>
        </mxCell>
        <mxCell id="_GWdkxwK42QnLjUwGl8g-22" value="" style="endArrow=none;html=1;rounded=0;" edge="1" parent="1" source="_GWdkxwK42QnLjUwGl8g-12" target="_GWdkxwK42QnLjUwGl8g-14">
          <mxGeometry relative="1" as="geometry">
            <mxPoint x="350" y="240" as="sourcePoint" />
            <mxPoint x="510" y="240" as="targetPoint" />
          </mxGeometry>
        </mxCell>
        <mxCell id="_GWdkxwK42QnLjUwGl8g-23" value="" style="endArrow=none;html=1;rounded=0;" edge="1" parent="1" source="_GWdkxwK42QnLjUwGl8g-12" target="_GWdkxwK42QnLjUwGl8g-17">
          <mxGeometry relative="1" as="geometry">
            <mxPoint x="460" y="150" as="sourcePoint" />
            <mxPoint x="620" y="150" as="targetPoint" />
          </mxGeometry>
        </mxCell>
        <mxCell id="_GWdkxwK42QnLjUwGl8g-24" value="" style="endArrow=none;html=1;rounded=0;exitX=0;exitY=0.5;exitDx=0;exitDy=0;" edge="1" parent="1" source="_GWdkxwK42QnLjUwGl8g-19" target="_GWdkxwK42QnLjUwGl8g-13">
          <mxGeometry relative="1" as="geometry">
            <mxPoint x="390" y="290" as="sourcePoint" />
            <mxPoint x="550" y="290" as="targetPoint" />
          </mxGeometry>
        </mxCell>
        <mxCell id="_GWdkxwK42QnLjUwGl8g-25" value="" style="endArrow=none;html=1;rounded=0;exitX=0;exitY=0;exitDx=0;exitDy=0;" edge="1" parent="1" source="_GWdkxwK42QnLjUwGl8g-18" target="_GWdkxwK42QnLjUwGl8g-13">
          <mxGeometry relative="1" as="geometry">
            <mxPoint x="440" y="310" as="sourcePoint" />
            <mxPoint x="600" y="310" as="targetPoint" />
          </mxGeometry>
        </mxCell>
        <mxCell id="_GWdkxwK42QnLjUwGl8g-26" value="" style="endArrow=none;html=1;rounded=0;" edge="1" parent="1" source="_GWdkxwK42QnLjUwGl8g-15" target="_GWdkxwK42QnLjUwGl8g-13">
          <mxGeometry relative="1" as="geometry">
            <mxPoint x="540" y="300" as="sourcePoint" />
            <mxPoint x="700" y="300" as="targetPoint" />
          </mxGeometry>
        </mxCell>
        <mxCell id="_GWdkxwK42QnLjUwGl8g-29" value="&lt;span id=&quot;docs-internal-guid-5fde173c-7fff-adc0-d6d1-01452f604315&quot;&gt;&lt;span style=&quot;font-size: 15px; font-family: Arial, sans-serif; background-color: transparent; font-variant-numeric: normal; font-variant-east-asian: normal; font-variant-alternates: normal; font-variant-position: normal; vertical-align: baseline; white-space-collapse: preserve;&quot;&gt;gender&lt;/span&gt;&lt;/span&gt;" style="ellipse;whiteSpace=wrap;html=1;align=center;" vertex="1" parent="1">
          <mxGeometry x="600" y="70" width="80" height="30" as="geometry" />
        </mxCell>
        <mxCell id="_GWdkxwK42QnLjUwGl8g-30" value="" style="endArrow=none;html=1;rounded=0;" edge="1" parent="1" source="_GWdkxwK42QnLjUwGl8g-12" target="_GWdkxwK42QnLjUwGl8g-29">
          <mxGeometry relative="1" as="geometry">
            <mxPoint x="340" y="310" as="sourcePoint" />
            <mxPoint x="500" y="310" as="targetPoint" />
          </mxGeometry>
        </mxCell>
        <mxCell id="_GWdkxwK42QnLjUwGl8g-31" value="" style="endArrow=none;html=1;rounded=0;" edge="1" parent="1" source="_GWdkxwK42QnLjUwGl8g-12" target="_GWdkxwK42QnLjUwGl8g-32">
          <mxGeometry relative="1" as="geometry">
            <mxPoint x="550" y="220" as="sourcePoint" />
            <mxPoint x="500" y="310" as="targetPoint" />
            <Array as="points">
              <mxPoint x="600" y="150" />
            </Array>
          </mxGeometry>
        </mxCell>
        <mxCell id="_GWdkxwK42QnLjUwGl8g-32" value="&lt;span id=&quot;docs-internal-guid-302c0cfe-7fff-e7ed-224b-210a24a1d12d&quot;&gt;&lt;span style=&quot;font-size: 15px; font-family: Arial, sans-serif; background-color: transparent; font-variant-numeric: normal; font-variant-east-asian: normal; font-variant-alternates: normal; font-variant-position: normal; vertical-align: baseline; white-space-collapse: preserve;&quot;&gt;position &lt;/span&gt;&lt;/span&gt;" style="ellipse;whiteSpace=wrap;html=1;align=center;" vertex="1" parent="1">
          <mxGeometry x="570" y="130" width="70" height="30" as="geometry" />
        </mxCell>
        <mxCell id="_GWdkxwK42QnLjUwGl8g-34" value="" style="endArrow=none;html=1;rounded=0;" edge="1" parent="1" source="_GWdkxwK42QnLjUwGl8g-12">
          <mxGeometry relative="1" as="geometry">
            <mxPoint x="340" y="320" as="sourcePoint" />
            <mxPoint x="551.9207562710658" y="128.53225686831047" as="targetPoint" />
          </mxGeometry>
        </mxCell>
        <mxCell id="_GWdkxwK42QnLjUwGl8g-35" value="&lt;span id=&quot;docs-internal-guid-13ff1a1f-7fff-f3ab-f6f9-8d94c91f58cf&quot;&gt;&lt;span style=&quot;font-size: 14pt; font-family: Arial, sans-serif; background-color: transparent; font-variant-numeric: normal; font-variant-east-asian: normal; font-variant-alternates: normal; font-variant-position: normal; vertical-align: baseline; white-space-collapse: preserve;&quot;&gt;aircraft&lt;/span&gt;&lt;/span&gt;" style="rounded=1;arcSize=10;whiteSpace=wrap;html=1;align=center;" vertex="1" parent="1">
          <mxGeometry x="30" y="400" width="90" height="30" as="geometry" />
        </mxCell>
        <mxCell id="_GWdkxwK42QnLjUwGl8g-37" value="capacity" style="ellipse;whiteSpace=wrap;html=1;align=center;" vertex="1" parent="1">
          <mxGeometry x="-80" y="340" width="70" height="30" as="geometry" />
        </mxCell>
        <mxCell id="_GWdkxwK42QnLjUwGl8g-39" value="&lt;font style=&quot;font-size: 14px;&quot;&gt;&lt;b&gt;id&lt;/b&gt;&lt;/font&gt;" style="ellipse;whiteSpace=wrap;html=1;align=center;fontStyle=4;" vertex="1" parent="1">
          <mxGeometry x="-80" y="390" width="60" height="20" as="geometry" />
        </mxCell>
        <mxCell id="_GWdkxwK42QnLjUwGl8g-40" value="model" style="ellipse;whiteSpace=wrap;html=1;align=center;" vertex="1" parent="1">
          <mxGeometry x="-80" y="420" width="60" height="20" as="geometry" />
        </mxCell>
        <mxCell id="_GWdkxwK42QnLjUwGl8g-41" value="" style="endArrow=none;html=1;rounded=0;" edge="1" parent="1" source="_GWdkxwK42QnLjUwGl8g-40" target="_GWdkxwK42QnLjUwGl8g-35">
          <mxGeometry relative="1" as="geometry">
            <mxPoint x="300" y="250" as="sourcePoint" />
            <mxPoint x="460" y="250" as="targetPoint" />
          </mxGeometry>
        </mxCell>
        <mxCell id="_GWdkxwK42QnLjUwGl8g-42" value="" style="endArrow=none;html=1;rounded=0;" edge="1" parent="1" source="_GWdkxwK42QnLjUwGl8g-39" target="_GWdkxwK42QnLjUwGl8g-35">
          <mxGeometry relative="1" as="geometry">
            <mxPoint x="300" y="250" as="sourcePoint" />
            <mxPoint x="460" y="250" as="targetPoint" />
          </mxGeometry>
        </mxCell>
        <mxCell id="_GWdkxwK42QnLjUwGl8g-43" value="" style="endArrow=none;html=1;rounded=0;" edge="1" parent="1" source="_GWdkxwK42QnLjUwGl8g-37" target="_GWdkxwK42QnLjUwGl8g-35">
          <mxGeometry relative="1" as="geometry">
            <mxPoint x="300" y="250" as="sourcePoint" />
            <mxPoint x="460" y="250" as="targetPoint" />
          </mxGeometry>
        </mxCell>
        <mxCell id="_GWdkxwK42QnLjUwGl8g-44" value="route" style="rounded=1;arcSize=10;whiteSpace=wrap;html=1;align=center;" vertex="1" parent="1">
          <mxGeometry x="560" y="420" width="90" height="30" as="geometry" />
        </mxCell>
        <mxCell id="_GWdkxwK42QnLjUwGl8g-45" value="&lt;span id=&quot;docs-internal-guid-795387a4-7fff-85f0-a5b7-b7a8edc6c2e4&quot;&gt;&lt;span style=&quot;font-size: 15px; font-family: Arial, sans-serif; background-color: transparent; font-variant-numeric: normal; font-variant-east-asian: normal; font-variant-alternates: normal; font-variant-position: normal; vertical-align: baseline; white-space-collapse: preserve;&quot;&gt;classification&lt;/span&gt;&lt;/span&gt;" style="ellipse;whiteSpace=wrap;html=1;align=center;" vertex="1" parent="1">
          <mxGeometry x="580" y="480" width="100" height="30" as="geometry" />
        </mxCell>
        <mxCell id="_GWdkxwK42QnLjUwGl8g-46" value="&lt;span id=&quot;docs-internal-guid-936495b4-7fff-49f2-3ae0-2ddad706fb46&quot;&gt;&lt;span style=&quot;font-size: 15px; font-family: Arial, sans-serif; background-color: transparent; font-variant-numeric: normal; font-variant-east-asian: normal; font-variant-alternates: normal; font-variant-position: normal; vertical-align: baseline; white-space-collapse: preserve;&quot;&gt;distance&lt;/span&gt;&lt;/span&gt;" style="ellipse;whiteSpace=wrap;html=1;align=center;" vertex="1" parent="1">
          <mxGeometry x="640" y="350" width="90" height="20" as="geometry" />
        </mxCell>
        <mxCell id="_GWdkxwK42QnLjUwGl8g-47" value="&lt;span id=&quot;docs-internal-guid-2970f8e5-7fff-2077-2d31-c93ff415d5a0&quot;&gt;&lt;span style=&quot;font-size: 14px; font-family: Arial, sans-serif; background-color: transparent; font-variant-numeric: normal; font-variant-east-asian: normal; font-variant-alternates: normal; font-variant-position: normal; vertical-align: baseline; white-space-collapse: preserve;&quot;&gt;destination&lt;/span&gt;&lt;/span&gt;" style="ellipse;whiteSpace=wrap;html=1;align=center;" vertex="1" parent="1">
          <mxGeometry x="730" y="450" width="80" height="30" as="geometry" />
        </mxCell>
        <mxCell id="_GWdkxwK42QnLjUwGl8g-48" value="origin" style="ellipse;whiteSpace=wrap;html=1;align=center;" vertex="1" parent="1">
          <mxGeometry x="680" y="390" width="70" height="20" as="geometry" />
        </mxCell>
        <mxCell id="_GWdkxwK42QnLjUwGl8g-49" value="&lt;b&gt;id&lt;/b&gt;" style="ellipse;whiteSpace=wrap;html=1;align=center;fontStyle=4;" vertex="1" parent="1">
          <mxGeometry x="720" y="420" width="60" height="20" as="geometry" />
        </mxCell>
        <mxCell id="_GWdkxwK42QnLjUwGl8g-51" value="&lt;span id=&quot;docs-internal-guid-a9003edb-7fff-07bb-c30a-0523dd175582&quot;&gt;&lt;span style=&quot;font-family: Arial, sans-serif; background-color: transparent; font-variant-numeric: normal; font-variant-east-asian: normal; font-variant-alternates: normal; font-variant-position: normal; vertical-align: baseline; white-space-collapse: preserve;&quot;&gt;&lt;font style=&quot;font-size: 12px;&quot;&gt;international &lt;/font&gt;&lt;/span&gt;&lt;/span&gt;" style="ellipse;whiteSpace=wrap;html=1;align=center;" vertex="1" parent="1">
          <mxGeometry x="600" y="560" width="80" height="30" as="geometry" />
        </mxCell>
        <mxCell id="_GWdkxwK42QnLjUwGl8g-52" value="&lt;span id=&quot;docs-internal-guid-fe1b2440-7fff-d865-cd6f-20d2a45bab27&quot;&gt;&lt;span style=&quot;font-family: Arial, sans-serif; background-color: transparent; font-variant-numeric: normal; font-variant-east-asian: normal; font-variant-alternates: normal; font-variant-position: normal; vertical-align: baseline; white-space-collapse: preserve;&quot;&gt;&lt;font style=&quot;font-size: 15px;&quot;&gt;domestic &lt;/font&gt;&lt;/span&gt;&lt;/span&gt;" style="ellipse;whiteSpace=wrap;html=1;align=center;" vertex="1" parent="1">
          <mxGeometry x="680" y="520" width="90" height="30" as="geometry" />
        </mxCell>
        <mxCell id="_GWdkxwK42QnLjUwGl8g-53" value="" style="endArrow=none;html=1;rounded=0;" edge="1" parent="1" source="_GWdkxwK42QnLjUwGl8g-45" target="_GWdkxwK42QnLjUwGl8g-44">
          <mxGeometry relative="1" as="geometry">
            <mxPoint x="400" y="470" as="sourcePoint" />
            <mxPoint x="560" y="470" as="targetPoint" />
          </mxGeometry>
        </mxCell>
        <mxCell id="_GWdkxwK42QnLjUwGl8g-54" value="" style="endArrow=none;html=1;rounded=0;" edge="1" parent="1" source="_GWdkxwK42QnLjUwGl8g-47" target="_GWdkxwK42QnLjUwGl8g-44">
          <mxGeometry relative="1" as="geometry">
            <mxPoint x="480" y="480" as="sourcePoint" />
            <mxPoint x="640" y="480" as="targetPoint" />
          </mxGeometry>
        </mxCell>
        <mxCell id="_GWdkxwK42QnLjUwGl8g-55" value="" style="endArrow=none;html=1;rounded=0;" edge="1" parent="1" source="_GWdkxwK42QnLjUwGl8g-49" target="_GWdkxwK42QnLjUwGl8g-44">
          <mxGeometry relative="1" as="geometry">
            <mxPoint x="480" y="480" as="sourcePoint" />
            <mxPoint x="640" y="480" as="targetPoint" />
          </mxGeometry>
        </mxCell>
        <mxCell id="_GWdkxwK42QnLjUwGl8g-56" value="" style="endArrow=none;html=1;rounded=0;" edge="1" parent="1" source="_GWdkxwK42QnLjUwGl8g-48" target="_GWdkxwK42QnLjUwGl8g-44">
          <mxGeometry relative="1" as="geometry">
            <mxPoint x="480" y="480" as="sourcePoint" />
            <mxPoint x="640" y="480" as="targetPoint" />
          </mxGeometry>
        </mxCell>
        <mxCell id="_GWdkxwK42QnLjUwGl8g-57" value="" style="endArrow=none;html=1;rounded=0;" edge="1" parent="1" source="_GWdkxwK42QnLjUwGl8g-46" target="_GWdkxwK42QnLjUwGl8g-44">
          <mxGeometry relative="1" as="geometry">
            <mxPoint x="480" y="480" as="sourcePoint" />
            <mxPoint x="640" y="480" as="targetPoint" />
          </mxGeometry>
        </mxCell>
        <mxCell id="_GWdkxwK42QnLjUwGl8g-58" value="" style="endArrow=none;html=1;rounded=0;" edge="1" parent="1" source="_GWdkxwK42QnLjUwGl8g-45" target="_GWdkxwK42QnLjUwGl8g-51">
          <mxGeometry relative="1" as="geometry">
            <mxPoint x="480" y="480" as="sourcePoint" />
            <mxPoint x="550" y="543" as="targetPoint" />
          </mxGeometry>
        </mxCell>
        <mxCell id="_GWdkxwK42QnLjUwGl8g-59" value="" style="endArrow=none;html=1;rounded=0;entryX=0.5;entryY=1;entryDx=0;entryDy=0;" edge="1" parent="1" source="_GWdkxwK42QnLjUwGl8g-52" target="_GWdkxwK42QnLjUwGl8g-45">
          <mxGeometry relative="1" as="geometry">
            <mxPoint x="480" y="480" as="sourcePoint" />
            <mxPoint x="640" y="480" as="targetPoint" />
          </mxGeometry>
        </mxCell>
        <mxCell id="_GWdkxwK42QnLjUwGl8g-62" value="&lt;span id=&quot;docs-internal-guid-f234561b-7fff-b668-f77e-af60f981edaa&quot;&gt;&lt;span style=&quot;font-family: Arial, sans-serif; background-color: transparent; font-variant-numeric: normal; font-variant-east-asian: normal; font-variant-alternates: normal; font-variant-position: normal; vertical-align: baseline; white-space-collapse: preserve;&quot;&gt;&lt;font style=&quot;font-size: 13px;&quot;&gt;two hostesses&lt;/font&gt;&lt;/span&gt;&lt;/span&gt;" style="ellipse;whiteSpace=wrap;html=1;align=center;" vertex="1" parent="1">
          <mxGeometry x="20" y="650" width="100" height="40" as="geometry" />
        </mxCell>
        <mxCell id="_GWdkxwK42QnLjUwGl8g-63" value="&lt;span id=&quot;docs-internal-guid-77658fda-7fff-5a4e-72ad-ac85f19bf7ef&quot;&gt;&lt;span style=&quot;font-size: 16px; font-family: Arial, sans-serif; background-color: transparent; font-variant-numeric: normal; font-variant-east-asian: normal; font-variant-alternates: normal; font-variant-position: normal; vertical-align: baseline; white-space-collapse: preserve;&quot;&gt;major pilot&lt;/span&gt;&lt;/span&gt;" style="ellipse;whiteSpace=wrap;html=1;align=center;" vertex="1" parent="1">
          <mxGeometry x="-60" y="620" width="90" height="30" as="geometry" />
        </mxCell>
        <mxCell id="_GWdkxwK42QnLjUwGl8g-64" value="&lt;span id=&quot;docs-internal-guid-aeb6f9d3-7fff-8845-aae9-bc021386adc9&quot;&gt;&lt;span style=&quot;font-family: Arial, sans-serif; background-color: transparent; font-variant-numeric: normal; font-variant-east-asian: normal; font-variant-alternates: normal; font-variant-position: normal; vertical-align: baseline; white-space-collapse: preserve;&quot;&gt;assistant pilot&lt;/span&gt;&lt;/span&gt;" style="ellipse;whiteSpace=wrap;html=1;align=center;" vertex="1" parent="1">
          <mxGeometry x="80" y="590" width="100" height="30" as="geometry" />
        </mxCell>
        <mxCell id="_GWdkxwK42QnLjUwGl8g-66" value="" style="endArrow=none;html=1;rounded=0;entryX=0.424;entryY=0.02;entryDx=0;entryDy=0;entryPerimeter=0;" edge="1" parent="1" target="_GWdkxwK42QnLjUwGl8g-62">
          <mxGeometry relative="1" as="geometry">
            <mxPoint x="64.59290187891429" y="570" as="sourcePoint" />
            <mxPoint x="460" y="460" as="targetPoint" />
          </mxGeometry>
        </mxCell>
        <mxCell id="_GWdkxwK42QnLjUwGl8g-67" value="" style="endArrow=none;html=1;rounded=0;" edge="1" parent="1" target="_GWdkxwK42QnLjUwGl8g-63">
          <mxGeometry relative="1" as="geometry">
            <mxPoint x="50" y="570" as="sourcePoint" />
            <mxPoint x="460" y="460" as="targetPoint" />
          </mxGeometry>
        </mxCell>
        <mxCell id="_GWdkxwK42QnLjUwGl8g-68" value="" style="endArrow=none;html=1;rounded=0;" edge="1" parent="1" target="_GWdkxwK42QnLjUwGl8g-64">
          <mxGeometry relative="1" as="geometry">
            <mxPoint x="84.5" y="570" as="sourcePoint" />
            <mxPoint x="460" y="460" as="targetPoint" />
          </mxGeometry>
        </mxCell>
        <mxCell id="_GWdkxwK42QnLjUwGl8g-69" value="&lt;span id=&quot;docs-internal-guid-080d0798-7fff-8ed1-965b-11cbd3f36a65&quot;&gt;&lt;span style=&quot;font-size: 14px; font-family: Arial, sans-serif; background-color: transparent; font-variant-numeric: normal; font-variant-east-asian: normal; font-variant-alternates: normal; font-variant-position: normal; vertical-align: baseline; white-space-collapse: preserve;&quot;&gt;buy/sell transactions&lt;/span&gt;&lt;/span&gt;" style="rounded=1;arcSize=10;whiteSpace=wrap;html=1;align=center;" vertex="1" parent="1">
          <mxGeometry x="250" y="60" width="100" height="40" as="geometry" />
        </mxCell>
        <mxCell id="_GWdkxwK42QnLjUwGl8g-70" value="&lt;u&gt;&lt;b&gt;id&lt;/b&gt;&lt;/u&gt;" style="ellipse;whiteSpace=wrap;html=1;align=center;" vertex="1" parent="1">
          <mxGeometry x="230" y="20" width="50" height="20" as="geometry" />
        </mxCell>
        <mxCell id="_GWdkxwK42QnLjUwGl8g-71" value="number" style="ellipse;whiteSpace=wrap;html=1;align=center;" vertex="1" parent="1">
          <mxGeometry x="230" y="-50" width="80" height="20" as="geometry" />
        </mxCell>
        <mxCell id="_GWdkxwK42QnLjUwGl8g-72" value="data&amp;nbsp;" style="ellipse;whiteSpace=wrap;html=1;align=center;" vertex="1" parent="1">
          <mxGeometry x="310" y="-20" width="60" height="20" as="geometry" />
        </mxCell>
        <mxCell id="_GWdkxwK42QnLjUwGl8g-73" value="&lt;span id=&quot;docs-internal-guid-f1729dd3-7fff-184a-8626-35afe7cebc71&quot;&gt;&lt;span style=&quot;font-family: Arial, sans-serif; background-color: transparent; font-variant-numeric: normal; font-variant-east-asian: normal; font-variant-alternates: normal; font-variant-position: normal; vertical-align: baseline; white-space-collapse: preserve; font-size: 11px;&quot;&gt;money paid/received&lt;/span&gt;&lt;/span&gt;" style="ellipse;whiteSpace=wrap;html=1;align=center;" vertex="1" parent="1">
          <mxGeometry x="110" y="-30" width="100" height="50" as="geometry" />
        </mxCell>
        <mxCell id="_GWdkxwK42QnLjUwGl8g-74" value="" style="endArrow=none;html=1;rounded=0;" edge="1" parent="1" source="_GWdkxwK42QnLjUwGl8g-73" target="_GWdkxwK42QnLjUwGl8g-69">
          <mxGeometry relative="1" as="geometry">
            <mxPoint x="340" y="150" as="sourcePoint" />
            <mxPoint x="500" y="150" as="targetPoint" />
          </mxGeometry>
        </mxCell>
        <mxCell id="_GWdkxwK42QnLjUwGl8g-75" value="" style="endArrow=none;html=1;rounded=0;" edge="1" parent="1" source="_GWdkxwK42QnLjUwGl8g-71" target="_GWdkxwK42QnLjUwGl8g-69">
          <mxGeometry relative="1" as="geometry">
            <mxPoint x="340" y="150" as="sourcePoint" />
            <mxPoint x="500" y="150" as="targetPoint" />
          </mxGeometry>
        </mxCell>
        <mxCell id="_GWdkxwK42QnLjUwGl8g-76" value="" style="endArrow=none;html=1;rounded=0;" edge="1" parent="1" source="_GWdkxwK42QnLjUwGl8g-72" target="_GWdkxwK42QnLjUwGl8g-69">
          <mxGeometry relative="1" as="geometry">
            <mxPoint x="340" y="150" as="sourcePoint" />
            <mxPoint x="500" y="150" as="targetPoint" />
          </mxGeometry>
        </mxCell>
        <mxCell id="_GWdkxwK42QnLjUwGl8g-77" value="" style="endArrow=none;html=1;rounded=0;" edge="1" parent="1" source="_GWdkxwK42QnLjUwGl8g-70" target="_GWdkxwK42QnLjUwGl8g-69">
          <mxGeometry relative="1" as="geometry">
            <mxPoint x="340" y="150" as="sourcePoint" />
            <mxPoint x="500" y="150" as="targetPoint" />
          </mxGeometry>
        </mxCell>
        <mxCell id="_GWdkxwK42QnLjUwGl8g-78" value="own" style="shape=rhombus;perimeter=rhombusPerimeter;whiteSpace=wrap;html=1;align=center;" vertex="1" parent="1">
          <mxGeometry x="80" y="310" width="60" height="40" as="geometry" />
        </mxCell>
        <mxCell id="_GWdkxwK42QnLjUwGl8g-83" value="" style="shape=link;html=1;rounded=0;" edge="1" parent="1" source="_GWdkxwK42QnLjUwGl8g-1" target="_GWdkxwK42QnLjUwGl8g-78">
          <mxGeometry relative="1" as="geometry">
            <mxPoint x="370" y="450" as="sourcePoint" />
            <mxPoint x="530" y="450" as="targetPoint" />
          </mxGeometry>
        </mxCell>
        <mxCell id="_GWdkxwK42QnLjUwGl8g-87" value="" style="shape=link;html=1;rounded=0;" edge="1" parent="1" source="_GWdkxwK42QnLjUwGl8g-78" target="_GWdkxwK42QnLjUwGl8g-35">
          <mxGeometry relative="1" as="geometry">
            <mxPoint x="370" y="450" as="sourcePoint" />
            <mxPoint x="530" y="450" as="targetPoint" />
          </mxGeometry>
        </mxCell>
        <mxCell id="_GWdkxwK42QnLjUwGl8g-88" value="M" style="resizable=0;html=1;whiteSpace=wrap;align=right;verticalAlign=bottom;" connectable="0" vertex="1" parent="_GWdkxwK42QnLjUwGl8g-87">
          <mxGeometry x="1" relative="1" as="geometry" />
        </mxCell>
        <mxCell id="_GWdkxwK42QnLjUwGl8g-89" value="1" style="text;html=1;align=center;verticalAlign=middle;resizable=0;points=[];autosize=1;strokeColor=none;fillColor=none;" vertex="1" parent="1">
          <mxGeometry x="90" y="230" width="30" height="30" as="geometry" />
        </mxCell>
        <mxCell id="_GWdkxwK42QnLjUwGl8g-90" value="assign&amp;nbsp;" style="shape=rhombus;perimeter=rhombusPerimeter;whiteSpace=wrap;html=1;align=center;" vertex="1" parent="1">
          <mxGeometry x="280" y="400" width="100" height="40" as="geometry" />
        </mxCell>
        <mxCell id="_GWdkxwK42QnLjUwGl8g-91" value="M" style="text;html=1;align=center;verticalAlign=middle;resizable=0;points=[];autosize=1;strokeColor=none;fillColor=none;" vertex="1" parent="1">
          <mxGeometry x="525" y="408" width="30" height="30" as="geometry" />
        </mxCell>
        <mxCell id="_GWdkxwK42QnLjUwGl8g-92" value="M" style="text;html=1;align=center;verticalAlign=middle;resizable=0;points=[];autosize=1;strokeColor=none;fillColor=none;" vertex="1" parent="1">
          <mxGeometry x="125" y="398" width="30" height="30" as="geometry" />
        </mxCell>
        <mxCell id="_GWdkxwK42QnLjUwGl8g-93" value="" style="endArrow=none;html=1;rounded=0;" edge="1" parent="1" source="_GWdkxwK42QnLjUwGl8g-90" target="_GWdkxwK42QnLjUwGl8g-44">
          <mxGeometry relative="1" as="geometry">
            <mxPoint x="370" y="350" as="sourcePoint" />
            <mxPoint x="530" y="350" as="targetPoint" />
          </mxGeometry>
        </mxCell>
        <mxCell id="_GWdkxwK42QnLjUwGl8g-94" value="" style="endArrow=none;html=1;rounded=0;" edge="1" parent="1" source="_GWdkxwK42QnLjUwGl8g-35" target="_GWdkxwK42QnLjUwGl8g-90">
          <mxGeometry relative="1" as="geometry">
            <mxPoint x="370" y="350" as="sourcePoint" />
            <mxPoint x="530" y="350" as="targetPoint" />
          </mxGeometry>
        </mxCell>
        <mxCell id="_GWdkxwK42QnLjUwGl8g-95" value="&lt;span id=&quot;docs-internal-guid-a5148467-7fff-33f5-00a4-f1218b92e181&quot;&gt;&lt;span style=&quot;font-family: Arial, sans-serif; background-color: transparent; font-variant-numeric: normal; font-variant-east-asian: normal; font-variant-alternates: normal; font-variant-position: normal; vertical-align: baseline; white-space-collapse: preserve;&quot;&gt;departure date time&lt;/span&gt;&lt;/span&gt;" style="ellipse;whiteSpace=wrap;html=1;align=center;" vertex="1" parent="1">
          <mxGeometry x="370" y="320" width="100" height="40" as="geometry" />
        </mxCell>
        <mxCell id="_GWdkxwK42QnLjUwGl8g-96" value="&lt;span id=&quot;docs-internal-guid-90ab4fe7-7fff-e70b-c7c6-3bd2e3ee81ae&quot;&gt;&lt;span style=&quot;font-size: 14px; font-family: Arial, sans-serif; background-color: transparent; font-variant-numeric: normal; font-variant-east-asian: normal; font-variant-alternates: normal; font-variant-position: normal; vertical-align: baseline; white-space-collapse: preserve;&quot;&gt;price&lt;/span&gt;&lt;/span&gt;" style="ellipse;whiteSpace=wrap;html=1;align=center;" vertex="1" parent="1">
          <mxGeometry x="230" y="370" width="70" height="20" as="geometry" />
        </mxCell>
        <mxCell id="_GWdkxwK42QnLjUwGl8g-97" value="&lt;span id=&quot;docs-internal-guid-52b432de-7fff-987b-01d6-6325363c54b7&quot;&gt;&lt;span style=&quot;font-family: Arial, sans-serif; background-color: transparent; font-variant-numeric: normal; font-variant-east-asian: normal; font-variant-alternates: normal; font-variant-position: normal; vertical-align: baseline; white-space-collapse: preserve; font-size: 11px;&quot;&gt;number of passengers&lt;/span&gt;&lt;/span&gt;" style="ellipse;whiteSpace=wrap;html=1;align=center;" vertex="1" parent="1">
          <mxGeometry x="240" y="310" width="90" height="40" as="geometry" />
        </mxCell>
        <mxCell id="_GWdkxwK42QnLjUwGl8g-98" value="" style="endArrow=none;html=1;rounded=0;" edge="1" parent="1" source="_GWdkxwK42QnLjUwGl8g-97" target="_GWdkxwK42QnLjUwGl8g-90">
          <mxGeometry relative="1" as="geometry">
            <mxPoint x="370" y="350" as="sourcePoint" />
            <mxPoint x="530" y="350" as="targetPoint" />
          </mxGeometry>
        </mxCell>
        <mxCell id="_GWdkxwK42QnLjUwGl8g-99" value="&lt;span id=&quot;docs-internal-guid-f8567524-7fff-64eb-fa3c-e3aefe424f8d&quot;&gt;&lt;span style=&quot;font-family: Arial, sans-serif; background-color: transparent; font-variant-numeric: normal; font-variant-east-asian: normal; font-variant-alternates: normal; font-variant-position: normal; vertical-align: baseline; white-space-collapse: preserve;&quot;&gt;arrival date time&lt;/span&gt;&lt;/span&gt;" style="ellipse;whiteSpace=wrap;html=1;align=center;" vertex="1" parent="1">
          <mxGeometry x="300" y="275" width="100" height="40" as="geometry" />
        </mxCell>
        <mxCell id="_GWdkxwK42QnLjUwGl8g-100" value="&lt;font style=&quot;font-size: 9px;&quot;&gt;time of spending of aircraft&amp;nbsp;&lt;/font&gt;" style="ellipse;whiteSpace=wrap;html=1;align=center;" vertex="1" parent="1">
          <mxGeometry x="410" y="370" width="100" height="40" as="geometry" />
        </mxCell>
        <mxCell id="_GWdkxwK42QnLjUwGl8g-101" value="" style="endArrow=none;html=1;rounded=0;exitX=1;exitY=1;exitDx=0;exitDy=0;" edge="1" parent="1" source="_GWdkxwK42QnLjUwGl8g-90" target="_GWdkxwK42QnLjUwGl8g-100">
          <mxGeometry relative="1" as="geometry">
            <mxPoint x="370" y="380" as="sourcePoint" />
            <mxPoint x="530" y="380" as="targetPoint" />
          </mxGeometry>
        </mxCell>
        <mxCell id="_GWdkxwK42QnLjUwGl8g-103" value="" style="endArrow=none;html=1;rounded=0;" edge="1" parent="1" source="_GWdkxwK42QnLjUwGl8g-95" target="_GWdkxwK42QnLjUwGl8g-90">
          <mxGeometry relative="1" as="geometry">
            <mxPoint x="370" y="380" as="sourcePoint" />
            <mxPoint x="530" y="380" as="targetPoint" />
          </mxGeometry>
        </mxCell>
        <mxCell id="_GWdkxwK42QnLjUwGl8g-104" value="" style="endArrow=none;html=1;rounded=0;" edge="1" parent="1" source="_GWdkxwK42QnLjUwGl8g-99" target="_GWdkxwK42QnLjUwGl8g-90">
          <mxGeometry relative="1" as="geometry">
            <mxPoint x="370" y="380" as="sourcePoint" />
            <mxPoint x="530" y="380" as="targetPoint" />
          </mxGeometry>
        </mxCell>
        <mxCell id="_GWdkxwK42QnLjUwGl8g-105" value="" style="endArrow=none;html=1;rounded=0;" edge="1" parent="1" source="_GWdkxwK42QnLjUwGl8g-96" target="_GWdkxwK42QnLjUwGl8g-90">
          <mxGeometry relative="1" as="geometry">
            <mxPoint x="370" y="380" as="sourcePoint" />
            <mxPoint x="530" y="380" as="targetPoint" />
          </mxGeometry>
        </mxCell>
        <mxCell id="_GWdkxwK42QnLjUwGl8g-109" value="1" style="text;html=1;align=center;verticalAlign=middle;resizable=0;points=[];autosize=1;strokeColor=none;fillColor=none;" vertex="1" parent="1">
          <mxGeometry x="30" y="520" width="30" height="30" as="geometry" />
        </mxCell>
        <mxCell id="_GWdkxwK42QnLjUwGl8g-110" value="" style="shape=link;html=1;rounded=0;" edge="1" parent="1">
          <mxGeometry relative="1" as="geometry">
            <mxPoint x="73" y="430" as="sourcePoint" />
            <mxPoint x="67.05378973105144" y="470.88019559902204" as="targetPoint" />
          </mxGeometry>
        </mxCell>
        <mxCell id="_GWdkxwK42QnLjUwGl8g-112" value="" style="shape=link;html=1;rounded=0;entryX=0.451;entryY=0.037;entryDx=0;entryDy=0;entryPerimeter=0;" edge="1" parent="1">
          <mxGeometry relative="1" as="geometry">
            <mxPoint x="63.85948275862074" y="499.5112068965518" as="sourcePoint" />
            <mxPoint x="60.590000000000146" y="541.1100000000001" as="targetPoint" />
          </mxGeometry>
        </mxCell>
        <mxCell id="_GWdkxwK42QnLjUwGl8g-114" value="1" style="text;html=1;align=center;verticalAlign=middle;resizable=0;points=[];autosize=1;strokeColor=none;fillColor=none;" vertex="1" parent="1">
          <mxGeometry x="40" y="420" width="30" height="30" as="geometry" />
        </mxCell>
        <mxCell id="_GWdkxwK42QnLjUwGl8g-115" value="keep info" style="shape=rhombus;perimeter=rhombusPerimeter;whiteSpace=wrap;html=1;align=center;" vertex="1" parent="1">
          <mxGeometry x="140" y="130" width="90" height="35" as="geometry" />
        </mxCell>
        <mxCell id="_GWdkxwK42QnLjUwGl8g-116" value="" style="shape=link;html=1;rounded=0;" edge="1" parent="1" source="_GWdkxwK42QnLjUwGl8g-1" target="_GWdkxwK42QnLjUwGl8g-115">
          <mxGeometry relative="1" as="geometry">
            <mxPoint x="90" y="150" as="sourcePoint" />
            <mxPoint x="250" y="150" as="targetPoint" />
          </mxGeometry>
        </mxCell>
        <mxCell id="_GWdkxwK42QnLjUwGl8g-118" value="" style="shape=link;html=1;rounded=0;" edge="1" parent="1" source="_GWdkxwK42QnLjUwGl8g-115" target="_GWdkxwK42QnLjUwGl8g-69">
          <mxGeometry relative="1" as="geometry">
            <mxPoint x="90" y="150" as="sourcePoint" />
            <mxPoint x="250" y="150" as="targetPoint" />
          </mxGeometry>
        </mxCell>
        <mxCell id="_GWdkxwK42QnLjUwGl8g-120" value="1" style="text;html=1;align=center;verticalAlign=middle;resizable=0;points=[];autosize=1;strokeColor=none;fillColor=none;" vertex="1" parent="1">
          <mxGeometry x="115" y="188" width="30" height="30" as="geometry" />
        </mxCell>
        <mxCell id="_GWdkxwK42QnLjUwGl8g-121" value="M" style="text;html=1;align=center;verticalAlign=middle;resizable=0;points=[];autosize=1;strokeColor=none;fillColor=none;" vertex="1" parent="1">
          <mxGeometry x="225" y="88" width="30" height="30" as="geometry" />
        </mxCell>
        <mxCell id="_GWdkxwK42QnLjUwGl8g-122" value="work" style="shape=rhombus;perimeter=rhombusPerimeter;whiteSpace=wrap;html=1;align=center;" vertex="1" parent="1">
          <mxGeometry x="330" y="200" width="80" height="30" as="geometry" />
        </mxCell>
        <mxCell id="_GWdkxwK42QnLjUwGl8g-123" value="M" style="text;html=1;align=center;verticalAlign=middle;resizable=0;points=[];autosize=1;strokeColor=none;fillColor=none;" vertex="1" parent="1">
          <mxGeometry x="555" y="198" width="30" height="30" as="geometry" />
        </mxCell>
        <mxCell id="_GWdkxwK42QnLjUwGl8g-124" value="1" style="text;html=1;align=center;verticalAlign=middle;resizable=0;points=[];autosize=1;strokeColor=none;fillColor=none;" vertex="1" parent="1">
          <mxGeometry x="175" y="208" width="30" height="30" as="geometry" />
        </mxCell>
        <mxCell id="_GWdkxwK42QnLjUwGl8g-125" value="" style="shape=link;html=1;rounded=0;exitX=1;exitY=0.75;exitDx=0;exitDy=0;" edge="1" parent="1" source="_GWdkxwK42QnLjUwGl8g-1" target="_GWdkxwK42QnLjUwGl8g-122">
          <mxGeometry relative="1" as="geometry">
            <mxPoint x="155.00434782608698" y="188" as="sourcePoint" />
            <mxPoint x="363.7" y="288" as="targetPoint" />
          </mxGeometry>
        </mxCell>
        <mxCell id="_GWdkxwK42QnLjUwGl8g-127" value="" style="shape=link;html=1;rounded=0;" edge="1" parent="1" source="_GWdkxwK42QnLjUwGl8g-122" target="_GWdkxwK42QnLjUwGl8g-12">
          <mxGeometry relative="1" as="geometry">
            <mxPoint x="200" y="340" as="sourcePoint" />
            <mxPoint x="360" y="340" as="targetPoint" />
          </mxGeometry>
        </mxCell>
        <mxCell id="_GWdkxwK42QnLjUwGl8g-129" value="own" style="shape=rhombus;double=1;perimeter=rhombusPerimeter;whiteSpace=wrap;html=1;align=center;" vertex="1" parent="1">
          <mxGeometry x="20" y="470" width="90" height="40" as="geometry" />
        </mxCell>
        <mxCell id="_GWdkxwK42QnLjUwGl8g-130" value="crew" style="shape=ext;margin=3;double=1;whiteSpace=wrap;html=1;align=center;" vertex="1" parent="1">
          <mxGeometry x="10" y="540" width="100" height="40" as="geometry" />
        </mxCell>
        <mxCell id="_GWdkxwK42QnLjUwGl8g-131" value="&lt;span style=&quot;font-family: Arial, sans-serif; font-size: 14px; white-space-collapse: preserve;&quot;&gt;qualifications&lt;/span&gt;" style="ellipse;shape=doubleEllipse;margin=3;whiteSpace=wrap;html=1;align=center;" vertex="1" parent="1">
          <mxGeometry x="485" y="88" width="100" height="40" as="geometry" />
        </mxCell>
      </root>
    </mxGraphModel>
  </diagram>
</mxfile>
